<svg width="2176" height="861" viewBox="0 0 2176 861" fill="none" xmlns="http://www.w3.org/2000/svg">
<path d="M943.684 771.105H952.57V785.705H960.92V792.883H952.57V827.014C952.57 828.837 953.189 830.057 954.426 830.676C955.109 831.034 956.249 831.213 957.844 831.213C958.267 831.213 958.723 831.213 959.211 831.213C959.699 831.18 960.269 831.132 960.92 831.066V838C959.911 838.293 958.853 838.505 957.746 838.635C956.672 838.765 955.5 838.83 954.23 838.83C950.129 838.83 947.346 837.788 945.881 835.705C944.416 833.589 943.684 830.855 943.684 827.502V792.883H936.604V785.705H943.684V771.105ZM969.758 766.027H978.547V792.785C980.63 790.148 982.502 788.293 984.162 787.219C986.994 785.363 990.526 784.436 994.758 784.436C1002.34 784.436 1007.49 787.089 1010.19 792.395C1011.65 795.292 1012.38 799.312 1012.38 804.455V838H1003.35V805.041C1003.35 801.2 1002.86 798.384 1001.89 796.594C1000.29 793.729 997.297 792.297 992.902 792.297C989.257 792.297 985.952 793.55 982.99 796.057C980.028 798.563 978.547 803.299 978.547 810.266V838H969.758V766.027ZM1047.2 784.533C1050.91 784.533 1054.51 785.412 1057.99 787.17C1061.47 788.895 1064.13 791.141 1065.95 793.908C1067.71 796.545 1068.88 799.621 1069.46 803.137C1069.99 805.546 1070.25 809.387 1070.25 814.66H1031.92C1032.08 819.966 1033.33 824.23 1035.68 827.453C1038.02 830.643 1041.65 832.238 1046.56 832.238C1051.15 832.238 1054.82 830.725 1057.55 827.697C1059.11 825.939 1060.22 823.905 1060.87 821.594H1069.51C1069.29 823.514 1068.52 825.663 1067.22 828.039C1065.95 830.383 1064.52 832.303 1062.92 833.801C1060.25 836.405 1056.95 838.163 1053.01 839.074C1050.89 839.595 1048.5 839.855 1045.83 839.855C1039.32 839.855 1033.8 837.495 1029.28 832.775C1024.75 828.023 1022.49 821.382 1022.49 812.854C1022.49 804.455 1024.77 797.635 1029.33 792.395C1033.89 787.154 1039.84 784.533 1047.2 784.533ZM1061.21 807.678C1060.85 803.869 1060.02 800.826 1058.72 798.547C1056.31 794.315 1052.29 792.199 1046.66 792.199C1042.63 792.199 1039.24 793.664 1036.51 796.594C1033.77 799.491 1032.32 803.186 1032.16 807.678H1061.21ZM1137.63 829.699C1140.92 829.699 1143.62 829.357 1145.73 828.674C1149.51 827.404 1152.6 824.963 1155.01 821.35C1156.93 818.452 1158.32 814.742 1159.16 810.217C1159.65 807.515 1159.89 805.008 1159.89 802.697C1159.89 793.811 1158.12 786.91 1154.57 781.994C1151.06 777.079 1145.38 774.621 1137.53 774.621H1120.29V829.699H1137.63ZM1110.53 766.271H1139.58C1149.45 766.271 1157.1 769.771 1162.53 776.77C1167.38 783.085 1169.81 791.174 1169.81 801.037C1169.81 808.654 1168.37 815.539 1165.51 821.691C1160.46 832.564 1151.79 838 1139.48 838H1110.53V766.271ZM1181.43 785.705H1189.78V794.738C1190.46 792.98 1192.14 790.848 1194.81 788.342C1197.48 785.803 1200.55 784.533 1204.04 784.533C1204.2 784.533 1204.47 784.549 1204.87 784.582C1205.26 784.615 1205.92 784.68 1206.87 784.777V794.055C1206.35 793.957 1205.86 793.892 1205.4 793.859C1204.98 793.827 1204.51 793.811 1203.99 793.811C1199.56 793.811 1196.16 795.243 1193.78 798.107C1191.4 800.939 1190.22 804.211 1190.22 807.922V838H1181.43V785.705ZM1214.48 785.949H1223.42V838H1214.48V785.949ZM1214.48 766.271H1223.42V776.232H1214.48V766.271ZM1238.95 777.746C1239.08 774.1 1239.71 771.431 1240.85 769.738C1242.9 766.743 1246.86 765.246 1252.72 765.246C1253.27 765.246 1253.84 765.262 1254.43 765.295C1255.01 765.327 1255.68 765.376 1256.43 765.441V773.449C1255.52 773.384 1254.85 773.352 1254.43 773.352C1254.04 773.319 1253.66 773.303 1253.3 773.303C1250.63 773.303 1249.04 774.003 1248.52 775.402C1248 776.77 1247.74 780.285 1247.74 785.949H1256.43V792.883H1247.64V838H1238.95V792.883H1231.67V785.949H1238.95V777.746ZM1266.34 771.105H1275.23V785.705H1283.58V792.883H1275.23V827.014C1275.23 828.837 1275.85 830.057 1277.08 830.676C1277.77 831.034 1278.9 831.213 1280.5 831.213C1280.92 831.213 1281.38 831.213 1281.87 831.213C1282.36 831.18 1282.93 831.132 1283.58 831.066V838C1282.57 838.293 1281.51 838.505 1280.4 838.635C1279.33 838.765 1278.16 838.83 1276.89 838.83C1272.79 838.83 1270 837.788 1268.54 835.705C1267.07 833.589 1266.34 830.855 1266.34 827.502V792.883H1259.26V785.705H1266.34V771.105Z" fill="white"/>
<path d="M727.601 220.96C729.64 220.28 731.001 230.48 730.321 235.24C728.28 241.36 722.16 246.8 710.6 252.92C704.48 255.64 699.72 259.04 699.72 259.72C699.72 264.48 688.84 270.6 567.8 329.08C490.96 366.48 147.56 531.72 82.2805 563C43.5205 581.36 22.4405 590.2 17.0005 590.2C15.6405 590.2 13.6005 589.52 12.2405 588.16C11.5605 587.48 10.8805 585.44 10.8805 583.4C10.8805 581.36 10.2005 581.36 8.16046 582.04C1.36046 584.76 0.000457644 584.76 0.000457644 581.36C0.000457644 573.2 6.12046 568.44 38.0805 552.12C55.7605 543.28 71.4005 535.12 73.4405 533.08C76.8405 531.04 76.8405 530.36 74.8005 529C70.0405 526.28 73.4405 522.88 88.4005 515.4L103.36 507.92L155.04 437.88C183.6 399.8 238 327.04 275.4 276.72C312.8 226.4 344.08 184.92 344.08 184.24C344.08 184.24 289.68 255.64 223.04 344.72C156.4 433.12 101.32 505.88 100.64 505.88C97.2405 506.56 93.8405 503.84 95.8805 501.12C96.5605 500.44 110.84 481.4 127.16 458.96C152.32 424.28 270.64 265.16 318.24 201.24C327.08 190.36 333.2 180.84 333.2 180.16C333.2 179.48 325.04 176.08 314.84 172.68C301.24 167.92 297.16 165.88 295.8 163.16C295.12 161.12 293.08 159.76 291.72 159.76C290.36 159.76 288.32 158.4 286.96 156.36C285.6 153.64 286.28 152.28 293.08 145.48L300.56 137.32L309.4 141.4C313.48 143.44 317.56 145.48 317.56 146.16C316.88 147.52 332.52 155.68 342.72 159.76L349.52 162.48L354.96 155.68C360.4 148.2 361.08 145.48 356.32 145.48C352.92 145.48 344.08 134.6 342.72 129.16C341.36 123.72 346.12 119.64 352.24 120.32C354.96 121 358.36 121.68 359.72 122.36C361.76 123.04 362.44 123.04 361.08 119.64C360.4 116.92 360.4 116.24 363.8 116.92C365.84 117.6 367.88 116.92 371.28 113.52C378.08 106.72 376.72 103.32 365.84 97.88C357.68 93.8 357 93.12 360.4 92.44C362.44 91.08 363.8 90.4 363.8 90.4C363.8 89.72 359.72 88.36 354.96 87C344.76 83.6 340.68 80.88 343.4 78.16C344.08 77.48 350.88 78.84 365.16 84.28C376.72 87.68 406.64 97.88 432.48 106.72C496.4 128.48 673.881 189 685.44 193.08C692.921 195.8 694.96 197.16 694.28 199.2C693.6 201.24 694.96 202.6 701.761 204.64C714 208.72 718.081 210.76 717.401 214.16C716.72 216.2 718.081 217.56 721.481 218.92C724.201 220.28 726.921 220.96 727.601 220.96ZM410.72 173.36C405.96 179.48 405.28 181.52 409.36 182.88C497.08 208.72 514.76 213.48 514.76 210.76C514.76 209.4 485.52 196.48 450.84 182.2L415.48 167.92L410.72 173.36ZM367.2 150.92C364.48 152.28 357 163.84 358.36 165.2C359.72 167.92 366.52 163.84 371.96 158.4L376.04 153.64L372.64 151.6C371.28 150.92 368.56 150.24 367.2 150.92ZM557.601 284.88C575.96 275.36 590.92 266.52 590.24 266.52C590.24 265.84 586.161 264.48 580.72 263.12L571.88 260.4L543.32 274C495.72 295.76 445.4 318.2 446.76 315.48C447.44 314.8 473.28 301.88 504.56 286.24C536.52 270.6 562.36 257.68 562.36 257C562.36 256.32 392.36 198.52 391.68 199.2C391.68 199.88 381.48 214.16 368.56 231.16C333.88 279.44 301.92 322.28 247.52 395.04C219.64 431.76 197.2 462.36 197.2 462.36C197.2 463.04 204.68 459.64 214.2 454.88C223.72 450.8 261.12 433.12 297.84 415.44C389.64 371.92 463.08 335.88 496.4 317.52C512.04 308.68 539.92 294.4 557.601 284.88ZM1082.5 167.24C1091.34 172.68 1095.42 178.12 1094.74 184.92C1094.74 188.32 1094.06 191.04 1093.38 191.72C1092.02 191.72 1090.66 193.08 1089.98 193.76C1089.3 194.44 1087.26 197.16 1085.22 199.88C1083.18 201.92 1080.46 203.96 1078.42 203.96C1073.66 205.32 1071.62 207.36 1073.66 210.08C1075.02 212.8 1074.34 214.16 1070.26 218.24C1060.74 228.44 1049.86 235.92 1037.62 240.68C1031.5 243.4 1026.06 246.12 1026.06 246.8C1026.74 249.52 1011.78 255.64 916.582 291.68C872.382 308.68 835.662 323.64 836.342 324.32C836.342 325 843.142 335.88 851.302 349.48C879.182 392.32 921.342 459.64 924.062 464.4C925.422 467.12 926.782 471.88 926.782 475.28C926.782 480.72 921.342 490.92 918.622 490.92C917.942 490.92 914.542 486.84 911.142 482.08C903.662 470.52 900.262 467.8 905.702 478C911.142 486.84 909.782 488.88 903.662 482.08C899.582 478 892.102 474.6 890.062 476.64C889.382 477.32 890.062 478.68 891.422 480.72C893.462 484.8 891.422 486.16 885.302 486.16C881.902 486.16 879.182 482.76 866.262 465.08C849.262 441.28 812.542 390.96 809.142 387.56C807.782 386.2 803.702 381.44 799.622 376.68C790.102 364.44 784.662 359.68 783.982 361.72C782.622 365.8 787.382 372.6 857.422 477.32C890.742 526.28 889.382 521.52 873.742 529C868.982 530.36 864.902 531.72 863.542 531.72C861.502 531.04 861.502 531.72 862.182 533.76C862.182 535.8 861.502 537.16 858.782 537.84C852.662 541.24 849.262 540.56 845.862 535.12C843.142 529.68 841.782 529.68 840.422 533.76C840.422 535.8 839.062 537.16 837.702 536.48C833.622 535.12 782.622 450.8 773.782 429.72C766.302 412.04 752.022 388.24 750.662 390.28C749.302 390.96 734.342 418.16 717.342 450.12C699.662 482.08 683.342 510.64 681.302 513.36C679.262 516.08 675.182 521.52 672.462 526.28C667.022 536.48 660.902 543.28 658.182 541.92C657.502 541.24 655.462 543.28 653.422 547.36C651.382 550.76 646.622 555.52 641.182 559.6C619.422 575.24 618.742 575.24 615.342 571.84C613.982 570.48 613.302 568.44 613.302 566.4C613.302 565.04 620.782 550.08 629.622 533.76C638.462 517.44 646.622 501.8 647.982 498.4C649.342 494.32 666.342 462.36 712.582 378.04C715.302 372.6 716.662 368.52 715.982 369.88C715.302 370.56 690.822 415.44 661.582 469.16C632.342 522.88 607.182 567.76 605.822 569.8C603.102 572.52 603.102 572.52 603.102 569.12C603.102 561.64 605.822 554.84 645.262 482.76C696.262 390.28 704.422 375.32 703.062 373.96C702.382 373.28 701.702 374.64 701.022 376C699.662 377.36 686.742 401.16 671.782 429.04C647.302 474.6 639.142 486.16 639.142 478.68C639.142 477.32 651.382 454.2 665.662 427.68C680.622 400.48 692.182 378.72 692.182 378.04C692.182 378.04 684.022 380.76 675.182 384.16C657.502 390.96 652.742 391.64 650.022 387.56C648.662 386.2 646.622 385.52 643.222 386.2C638.462 386.88 637.782 386.88 637.782 384.84C637.782 381.44 645.942 367.16 648.662 365.12C650.702 363.08 684.022 350.16 703.062 342.68C709.182 340.64 713.942 337.92 715.302 335.88C717.342 332.48 717.342 331.8 713.942 328.4C711.902 326.36 710.542 322.96 711.222 321.6C711.222 317.52 710.542 317.52 701.022 321.6C696.262 323.64 692.182 324.32 692.182 324.32C691.502 323.64 694.222 322.28 697.622 320.92C701.702 319.56 710.542 315.48 718.022 312.08L732.302 305.96L752.702 267.2L773.782 229.12L766.982 227.76C760.182 226.4 749.982 227.08 745.902 229.12C744.542 229.8 742.502 228.44 739.782 226.4C735.702 222.32 735.022 222.32 732.302 224.36C729.582 227.08 729.582 227.08 728.902 224.36C726.862 220.28 730.942 210.76 737.062 203.96L742.502 197.84H760.862C771.062 197.84 780.582 197.84 781.262 197.84C788.062 199.2 790.782 197.84 796.222 187.64L801.662 178.12L798.262 173.36C794.862 168.6 794.182 165.88 797.582 165.88C798.262 165.88 799.622 164.52 798.942 162.48C798.942 159.08 800.982 157.72 811.182 152.96C815.262 151.6 821.382 143.44 823.422 138C823.422 137.32 824.782 136.64 826.142 137.32C828.862 138.68 828.862 138.68 825.462 144.8C824.102 148.2 822.742 150.92 823.422 151.6C824.102 152.28 932.222 157.04 1012.46 160.44L1075.7 163.16L1082.5 167.24ZM741.822 301.2C741.822 303.92 745.902 297.12 763.582 264.48C774.462 244.76 782.622 229.12 781.942 228.44H781.262C779.902 229.8 741.822 299.84 741.822 301.2ZM787.382 240.68L794.182 229.8H790.102C786.702 229.8 785.342 232.52 777.862 246.12C773.102 255.64 765.622 268.56 762.222 275.36C758.142 282.84 756.102 287.6 756.782 286.92C758.142 286.24 758.822 286.92 758.142 288.28C758.142 288.96 756.782 290.32 756.102 289.64C755.422 289.64 754.742 291.68 754.742 293.04C754.742 295.08 755.422 297.12 755.422 297.12C756.102 297.12 762.222 286.92 769.022 274.68C775.822 262.44 783.982 246.8 787.382 240.68ZM807.782 199.2C808.462 199.2 810.502 198.52 811.862 197.84C814.582 196.48 822.742 182.88 822.742 179.48C822.742 177.44 815.262 177.44 809.822 179.48C807.102 180.84 798.262 193.08 798.262 197.16C798.262 197.16 800.302 197.84 802.342 198.52C805.062 198.52 807.102 199.2 807.782 199.2ZM862.182 256.32C888.022 246.8 909.102 237.96 909.102 237.96C907.742 236.6 857.422 233.2 843.142 233.2H832.262L821.382 254.28C815.262 266.52 811.182 276.04 812.542 275.36C813.222 274.68 835.662 266.52 862.182 256.32ZM1007.02 200.56C1014.5 197.84 1021.3 195.8 1021.98 195.12C1022.66 194.44 1004.3 192.4 981.862 191.04C897.542 185.6 875.782 184.24 869.662 182.88C864.902 181.52 862.862 181.52 859.462 183.56C856.742 184.92 855.382 186.96 855.382 187.64C855.382 189 854.702 191.72 853.342 194.44C852.662 197.16 851.982 199.88 851.982 199.88C852.662 201.24 947.862 204.64 973.702 205.32C992.062 205.32 994.782 205.32 1007.02 200.56ZM1346.38 178.8C1352.5 184.92 1353.86 186.96 1353.18 192.4C1353.18 199.2 1348.42 207.36 1342.3 208.72C1340.26 208.72 1337.54 210.08 1336.86 210.08C1336.18 210.76 1333.46 210.76 1330.74 210.76C1326.66 210.08 1326.66 210.76 1327.34 214.84C1328.7 218.92 1328.02 220.28 1321.9 223.68C1306.26 233.88 1300.82 235.92 1289.26 235.92C1279.06 235.92 1279.06 235.92 1278.38 239.32C1277.7 244.08 1275.66 245.44 1268.86 245.44C1264.1 246.12 1262.74 246.8 1256.62 254.96C1252.54 260.4 1226.02 297.8 1196.78 337.92L1143.74 411.36L1156.66 412.72C1164.14 413.4 1170.26 414.08 1170.94 414.76C1170.94 414.76 1170.94 416.12 1170.94 417.48C1169.58 419.52 1166.86 419.52 1153.94 418.84C1139.66 418.16 1137.62 418.16 1136.94 420.88C1136.26 422.24 1136.26 423.6 1136.26 423.6C1136.26 423.6 1149.18 424.96 1164.14 425.64C1194.06 427.68 1198.14 429.04 1202.9 437.2C1208.34 446.04 1207.66 453.52 1201.54 460.32C1197.46 465.08 1194.74 465.76 1187.94 466.44C1180.46 467.8 1179.78 467.8 1181.14 471.88C1181.82 478 1176.38 481.4 1168.9 480.04C1163.46 479.36 1163.46 479.36 1164.14 482.08C1164.82 484.8 1164.14 486.16 1160.06 488.2C1154.62 491.6 1132.18 500.44 1126.74 501.12C1124.7 501.8 1104.98 500.44 1082.54 498.4L1042.42 495L1035.62 497.72C1028.14 501.12 1024.74 501.12 1023.38 496.36C1022.7 493.64 1021.34 492.96 1017.26 493.64C1014.54 494.32 1012.5 493.64 1012.5 492.96C1012.5 492.28 1007.74 491.6 1001.62 490.92C976.465 488.2 975.105 488.2 974.425 484.8C973.745 482.76 975.105 480.04 977.145 478C979.865 474.6 981.225 473.92 1002.3 472.56C1017.94 471.2 1025.42 470.52 1025.42 469.16C1026.1 467.8 1024.74 467.12 1021.34 467.12C1018.62 467.12 1016.58 466.44 1016.58 465.08C1016.58 463.72 1016.58 461.68 1015.9 461C1015.9 459.64 1019.3 454.88 1023.38 449.44L1032.22 440.6L1037.66 442.64C1041.06 443.32 1043.78 444 1044.46 443.32C1047.18 441.96 1045.82 439.92 1039.7 437.88C1031.54 435.16 1032.22 433.12 1041.06 433.8C1045.14 433.8 1048.54 433.8 1047.86 433.12C1047.18 432.44 1045.82 431.76 1044.46 431.76C1039.7 431.76 1037.66 429.72 1039.7 426.32C1042.42 421.56 1049.9 418.16 1056.02 418.84C1060.1 419.52 1062.14 418.84 1064.86 416.12L1068.26 412.72L1050.58 411.36C1036.3 410 1032.9 409.32 1032.9 407.28C1032.9 405.92 1036.3 405.24 1053.3 405.24H1073.02L1133.54 322.96C1166.86 277.4 1194.06 240.68 1193.38 240C1193.38 240 1183.86 239.32 1171.62 237.96C1160.06 237.28 1149.86 235.92 1149.18 235.24C1148.5 234.56 1147.82 231.16 1147.82 227.76C1147.14 222.32 1147.14 220.96 1143.74 220.96C1138.98 220.96 1139.66 216.2 1145.1 211.44C1149.86 207.36 1151.22 207.36 1157.34 208.04C1163.46 208.72 1165.5 208.04 1170.26 204.64C1173.66 201.92 1177.74 198.52 1179.1 197.16C1181.82 194.44 1183.18 193.76 1187.94 194.44C1193.38 195.8 1194.06 195.12 1194.06 192.4C1194.06 191.04 1192.7 188.32 1191.34 186.96C1188.62 184.24 1189.3 184.24 1198.14 184.92C1203.58 184.92 1207.66 184.92 1207.66 184.24C1207.66 183.56 1204.94 182.2 1200.86 180.84C1196.78 179.48 1194.06 177.44 1194.06 176.76C1194.06 176.08 1198.14 176.08 1202.9 176.08L1211.74 176.76L1204.26 174.72C1200.18 173.36 1196.78 171.32 1196.78 170.64C1196.78 168.6 1204.94 163.16 1210.38 161.8C1213.78 160.44 1223.98 161.12 1240.98 162.48C1272.26 165.2 1289.94 163.84 1296.06 157.72C1299.46 154.32 1300.14 154.32 1302.86 156.36C1304.9 157.72 1308.3 161.12 1310.34 163.84C1313.06 168.6 1314.42 169.28 1319.86 169.28C1332.78 169.28 1338.9 171.32 1346.38 178.8ZM1080.5 416.8C1083.22 414.08 1082.54 413.4 1079.14 413.4C1075.74 413.4 1071.66 416.12 1071.66 418.84C1071.66 420.88 1077.78 419.52 1080.5 416.8ZM1144.42 337.24C1175.7 293.04 1209.7 245.44 1210.38 242.72C1211.06 242.04 1209.7 241.36 1208.34 241.36C1206.3 241.36 1197.46 251.56 1178.42 276.04C1137.62 329.08 1081.18 405.24 1081.18 406.6C1081.18 408.64 1088.66 407.96 1089.34 405.24C1090.02 404.56 1094.1 400.48 1097.5 396.4C1111.78 381.44 1124.7 364.44 1144.42 337.24ZM1738.07 177.44C1744.87 183.56 1742.83 201.24 1735.35 201.24C1733.99 201.24 1731.95 202.6 1731.95 203.96C1731.27 205.32 1729.91 206 1727.19 205.32C1721.75 203.96 1721.07 206 1725.15 214.84L1728.55 223L1723.11 227.76C1720.39 229.8 1713.59 234.56 1708.83 237.28L1699.31 242.72L1484.43 240.68L1474.23 254.28C1468.79 261.76 1463.35 268.56 1462.67 269.92C1461.99 271.96 1465.39 271.96 1495.99 270.6C1521.83 269.92 1530.67 269.92 1531.35 271.96C1532.03 272.64 1532.03 274 1531.35 274.68C1530.67 275.36 1513.67 276.72 1493.27 277.4C1472.87 277.4 1455.87 278.76 1454.51 279.44C1449.07 284.2 1453.83 284.2 1500.07 283.52C1546.31 282.84 1547.67 282.84 1548.35 285.56C1549.03 287.6 1550.39 288.28 1553.11 287.6C1559.91 285.56 1563.99 288.28 1567.39 295.08C1569.43 299.84 1570.11 303.24 1569.43 305.96C1568.07 312.76 1561.95 320.24 1557.87 320.24C1556.51 320.24 1555.15 320.92 1555.15 322.28C1555.15 322.96 1552.43 323.64 1549.71 323.64C1544.27 323.64 1543.59 323.64 1546.31 328.4C1547.67 331.12 1546.99 331.8 1542.91 334.52C1540.19 335.88 1536.79 337.92 1535.43 339.28C1527.27 346.76 1529.31 346.76 1464.71 346.76H1404.19L1400.79 350.84C1393.99 357.64 1356.59 406.6 1317.15 460.32C1292.67 492.96 1278.39 510.64 1276.35 510.64C1274.31 511.32 1269.55 514.72 1266.15 518.8C1260.71 524.92 1257.31 526.96 1250.51 529C1245.07 530.36 1240.99 533.08 1237.59 536.48C1230.11 545.32 1205.63 555.52 1201.55 551.44C1199.51 549.4 1200.87 543.96 1204.95 538.52C1206.99 535.12 1231.47 502.48 1259.35 465.76C1287.23 429.04 1319.19 387.56 1329.39 373.28C1340.27 359.68 1349.11 347.44 1348.43 347.44C1348.43 346.76 1334.83 363.76 1319.19 384.16C1302.87 405.24 1277.71 438.56 1262.07 458.96C1246.43 478.68 1226.03 505.2 1217.19 516.76C1196.79 543.96 1192.71 548.72 1190.67 548.04C1186.59 546.68 1193.39 535.8 1218.55 502.48C1233.51 482.76 1244.39 467.12 1243.71 466.44C1240.99 465.08 1241.67 464.4 1288.59 403.2C1336.19 339.96 1333.47 344.04 1330.75 342C1330.07 341.32 1328.71 339.96 1328.71 339.28C1328.71 338.6 1325.99 337.92 1322.59 337.92C1312.39 337.92 1311.03 336.56 1317.83 329.08C1321.23 325.68 1325.31 320.24 1326.67 317.52C1329.39 313.44 1330.07 312.76 1337.55 312.76C1347.07 312.76 1348.43 310.72 1339.59 308C1329.39 305.28 1332.79 303.92 1349.11 303.24H1364.75L1351.15 302.56C1342.99 301.88 1336.87 301.2 1336.19 300.52C1334.15 299.16 1340.95 291.68 1346.39 289.64C1349.79 287.6 1355.91 286.92 1364.07 286.92C1374.27 286.92 1376.31 286.24 1379.03 283.52L1381.75 280.8H1357.27C1334.83 280.8 1327.35 280.12 1335.51 278.76C1337.55 278.08 1348.43 277.4 1360.67 276.72C1372.91 276.72 1383.11 276.04 1384.47 275.36C1386.51 274.68 1410.31 244.08 1411.67 240.68C1412.35 237.96 1354.55 240.68 1344.35 243.4C1339.59 244.76 1335.51 245.44 1334.83 245.44C1332.79 245.44 1338.23 235.92 1342.99 230.48C1347.07 226.4 1349.11 225.72 1355.91 225.72C1362.71 225.72 1364.07 225.04 1370.87 218.92L1379.03 211.44L1411.67 210.08L1408.95 206.68C1406.91 203.28 1405.55 202.6 1398.07 202.6C1393.31 202.6 1388.55 201.92 1387.19 201.24C1385.83 200.56 1387.87 199.88 1394.67 199.88C1405.55 199.88 1406.91 197.84 1396.71 195.12C1393.31 193.76 1389.91 192.4 1389.91 191.72C1389.91 191.04 1393.99 190.36 1398.75 190.36H1407.59L1393.99 186.28L1401.47 185.6C1406.91 184.24 1410.31 182.88 1413.03 179.48C1417.11 176.08 1418.47 175.4 1426.63 175.4C1431.39 175.4 1441.59 174.72 1449.75 174.72L1463.35 173.36L1483.75 146.16C1496.67 129.16 1504.83 118.96 1506.87 118.96C1508.23 118.96 1509.59 118.96 1509.59 119.64C1509.59 119.64 1500.75 130.52 1490.55 143.44C1480.35 156.36 1470.83 167.92 1468.79 169.96L1466.07 174.04H1483.75L1497.35 155.68C1507.55 142.08 1512.99 135.96 1517.07 133.92C1520.47 132.56 1523.87 131.2 1524.55 131.2C1525.23 131.88 1521.83 136.64 1517.07 142.76C1511.63 148.2 1507.55 153.64 1507.55 155C1507.55 155.68 1510.27 157.72 1512.31 159.08C1517.07 161.8 1517.75 161.8 1520.47 158.4C1522.51 155.68 1523.19 155.68 1525.23 157.04C1526.59 158.4 1527.95 158.4 1529.31 157.72C1530.67 156.36 1534.75 155.68 1538.83 155C1544.95 154.32 1545.63 154.32 1545.63 157.04C1545.63 158.4 1543.59 162.48 1541.55 165.88C1538.83 169.28 1536.79 172.68 1536.79 173.36C1536.79 173.36 1581.67 174.04 1636.07 174.04C1730.59 174.72 1735.35 174.72 1738.07 177.44ZM1398.75 282.16C1400.11 280.8 1400.79 279.44 1400.11 279.44C1400.11 279.44 1398.75 280.8 1396.71 282.16C1395.35 284.2 1394.67 285.56 1395.35 285.56C1396.71 285.56 1398.07 284.2 1398.75 282.16ZM1419.15 255.64C1425.27 247.48 1430.03 240.68 1429.35 240.68C1428.67 239.32 1404.19 271.96 1404.19 274C1404.19 274.68 1404.87 274.68 1405.55 273.32C1406.91 271.96 1413.03 263.8 1419.15 255.64ZM2157.8 163.16C2165.96 163.16 2175.48 172.68 2175.48 180.84C2175.48 188.32 2171.4 196.48 2167.32 197.16C2165.28 197.16 2164.6 197.84 2164.6 199.2C2165.28 199.88 2161.88 200.56 2157.12 201.24C2149.64 201.92 2148.96 202.6 2148.96 205.32C2149.64 206.68 2149.64 209.4 2150.32 211.44C2150.32 212.8 2151 214.84 2151.68 216.2C2153.04 218.24 2142.16 228.44 2136.72 229.12C2133.32 229.8 2132.64 230.48 2134 231.84C2135.36 232.52 2133.32 234.56 2127.2 239.32C2119.72 245.44 2118.36 245.44 2108.84 245.44C2102.72 245.44 2087.76 246.8 2074.84 247.48C2027.24 252.24 2018.4 252.92 1985.08 254.96C1966.72 255.64 1948.36 257 1944.28 257L1936.12 257.68L1927.96 273.32C1912.32 302.56 1864.72 389.6 1832.08 449.44C1807.6 493.64 1797.4 510.64 1792.64 515.4C1788.56 518.8 1785.84 522.88 1785.84 523.56C1785.84 529 1751.16 558.92 1739.6 564.36C1722.6 571.16 1723.28 564.36 1745.72 524.24C1764.08 490.92 1774.96 469.84 1772.24 472.56C1771.56 473.24 1762.04 490.24 1751.16 509.96C1726.68 553.48 1719.88 565.04 1717.16 565.72C1715.8 566.4 1715.12 565.72 1716.48 560.96C1717.16 557.56 1719.2 551.44 1721.92 546C1726.68 537.16 1787.2 427.68 1844.32 325C1864.04 289.64 1880.36 260.4 1880.36 260.4C1880.36 259.72 1876.28 259.72 1870.16 260.4C1864.72 260.4 1838.88 261.76 1813.72 263.12C1787.88 264.48 1751.84 266.52 1734.16 267.2C1700.84 269.24 1685.88 269.24 1687.24 266.52C1687.92 265.84 1690.64 265.16 1692.68 265.16C1696.08 265.16 1697.44 264.48 1697.44 263.12C1697.44 261.76 1695.4 261.08 1692.68 261.08C1687.92 261.08 1687.92 260.4 1688.6 256.32C1691.32 248.16 1693.36 246.8 1711.04 246.8C1725.32 246.8 1728.72 246.8 1734.16 243.4C1739.6 240.68 1744.36 239.32 1758.64 238.64C1782.44 237.28 1821.88 233.2 1826.64 232.52L1830.72 231.16L1827.32 229.8C1825.28 229.8 1817.8 229.12 1810.32 228.44C1803.52 228.44 1794.68 227.76 1791.28 227.08C1785.16 226.4 1785.16 226.4 1796.04 225.04C1809.64 223.68 1813.72 222.32 1812.36 220.96C1811.68 219.6 1799.44 219.6 1781.76 220.28C1757.28 220.96 1728.72 218.92 1726.68 217.56C1726.68 216.88 1726.68 214.84 1728.04 212.8C1729.4 209.4 1730.08 208.72 1739.6 208.72C1753.88 208.72 1752.52 206 1737.56 203.28C1728.04 201.92 1730.76 199.88 1742.32 199.88C1748.44 199.88 1751.16 199.2 1749.12 197.84C1747.76 197.16 1743.68 196.48 1739.6 196.48C1731.44 196.48 1730.76 195.12 1735.52 188.32C1743 178.8 1743.68 178.8 1877.64 175.4C1919.8 174.04 1938.16 172.68 1938.84 171.32C1940.88 168.6 1930.68 168.6 1838.2 172.68C1717.16 178.12 1723.96 178.12 1723.28 174.72C1723.28 172 1723.96 172 1845 166.56L1942.24 162.48L1947.68 157.04C1952.44 151.6 1962.64 146.16 1968.08 146.16C1972.84 146.16 1982.36 152.96 1983.72 157.04C1985.08 160.44 1979.64 160.44 2063.28 157.04C2128.56 153.64 2136.04 153.64 2131.96 158.4C2131.28 159.08 2097.96 161.12 2057.84 163.16C2015.68 165.2 1984.4 167.24 1983.04 167.92C1976.24 173.36 1987.8 173.36 2091.84 166.56C2125.84 164.52 2155.08 163.16 2157.8 163.16ZM1778.36 463.72C1779.72 460.32 1781.08 457.6 1780.4 457.6C1780.4 457.6 1778.36 460.32 1777 463.72C1774.96 467.12 1774.28 469.84 1774.28 469.84C1774.96 469.84 1776.32 467.12 1778.36 463.72ZM1787.2 447.4C1788.56 445.36 1788.56 444 1788.56 444C1787.88 444 1786.52 445.36 1785.84 447.4C1785.16 448.76 1784.48 450.12 1785.16 450.12C1785.16 450.12 1786.52 448.76 1787.2 447.4Z" fill="#FF0000"/>
</svg>
