<svg width="237" height="142" viewBox="0 0 237 142" fill="none" xmlns="http://www.w3.org/2000/svg">
<path d="M184.528 87.465C184.528 87.465 187.039 61.7299 205.755 61.7295C224.47 61.7291 226.981 87.465 226.981 87.465V142" stroke="white" stroke-width="20"/>
<path d="M184.452 87.7355C184.452 87.7355 181.942 62.0004 163.226 62C144.51 61.9996 141.999 87.7355 141.999 87.7355L141.998 106.5" stroke="white" stroke-width="20"/>
<path d="M175.232 71.1353L175.232 87.5947C175.232 87.5947 173.758 75.838 163.44 75.838C153.122 75.838 151.648 87.5947 151.648 87.5947L151.648 71.1353L175.232 71.1353Z" fill="white"/>
<path d="M217.685 71.1353L217.685 87.5947C217.685 87.5947 216.211 75.838 205.892 75.838C195.574 75.838 194.1 87.5947 194.1 87.5947L194.1 71.1353L217.685 71.1353Z" fill="white"/>
<path d="M52 61.7297C52 61.7297 52 10 118.038 10C180.5 11.5 180.5 61.7297 180.5 61.7297" stroke="white" stroke-width="20"/>
<path d="M174.527 87.5942L174.527 97.5942L194.527 97.595L194.527 87.595L184.527 87.5946L174.527 87.5942ZM184.528 73H174.528C174.528 75.7498 174.528 79.3983 174.528 82.3595C174.527 83.84 174.527 85.1487 174.527 86.0872C174.527 86.5565 174.527 86.9332 174.527 87.1927C174.527 87.3224 174.527 87.4227 174.527 87.4907C174.527 87.5247 174.527 87.5505 174.527 87.5679C174.527 87.5766 174.527 87.5832 174.527 87.5876C174.527 87.5898 174.527 87.5914 174.527 87.5925C174.527 87.5931 174.527 87.5935 174.527 87.5938C174.527 87.5939 174.527 87.594 174.527 87.5941C174.527 87.5941 174.527 87.5942 184.527 87.5946C194.527 87.595 194.527 87.595 194.527 87.5949C194.527 87.5949 194.527 87.5947 194.527 87.5946C194.527 87.5943 194.527 87.5939 194.527 87.5934C194.527 87.5923 194.527 87.5906 194.527 87.5884C194.527 87.584 194.527 87.5775 194.527 87.5688C194.527 87.5514 194.527 87.5255 194.527 87.4915C194.527 87.4236 194.527 87.3232 194.527 87.1935C194.527 86.9341 194.527 86.5573 194.527 86.088C194.527 85.1494 194.527 83.8407 194.528 82.3601C194.528 79.399 194.528 75.7502 194.528 73H184.528Z" fill="white"/>
<rect x="20" y="142" width="20" height="198" transform="rotate(-90 20 142)" fill="white"/>
<path d="M10 104.107L0.00232029 103.892L0 104V104.107H10ZM84.9054 96.1074V106.107L104.905 106.107V96.1075L94.9054 96.1075L84.9054 96.1074ZM10 142H20V104.107H10H0V142H10ZM10 104.107C19.9977 104.323 19.9976 104.328 19.9975 104.332C19.9974 104.333 19.9973 104.338 19.9973 104.34C19.9972 104.346 19.9971 104.35 19.997 104.354C19.9967 104.362 19.9966 104.368 19.9965 104.371C19.9963 104.377 19.9964 104.374 19.9969 104.361C19.9978 104.336 20.0004 104.273 20.0056 104.177C20.0162 103.983 20.0377 103.653 20.0789 103.206C20.1617 102.309 20.3224 100.963 20.629 99.3215C21.2505 95.9924 22.426 91.695 24.5889 87.5119C26.7342 83.3628 29.7484 79.5145 34.0139 76.6861C38.2113 73.9028 44.1806 71.7305 52.9092 71.7305V61.7305V51.7305C40.6396 51.7305 30.7463 54.8553 22.9611 60.0177C15.244 65.1349 10.1556 71.8809 6.82314 78.3261C3.50826 84.7372 1.8307 91.034 0.968721 95.6506C0.533504 97.9816 0.294806 99.9462 0.163607 101.367C0.0978565 102.079 0.0586681 102.66 0.0353661 103.087C0.0237083 103.3 0.0160017 103.476 0.0109348 103.611C0.00840092 103.678 0.00652504 103.736 0.00514317 103.783C0.00445271 103.806 0.00388622 103.827 0.00342178 103.845C0.00319004 103.854 0.00298405 103.863 0.00280094 103.871C0.00271034 103.875 0.00258827 103.88 0.0025444 103.882C0.00242901 103.887 0.00232029 103.892 10 104.107ZM52.9092 61.7305V71.7305C70.6033 71.7305 77.7808 78.6618 81.1219 84.1316C82.9879 87.1865 83.9586 90.3165 84.4502 92.7312C84.6925 93.9213 84.8075 94.8838 84.8612 95.4996C84.8879 95.8057 84.899 96.0205 84.9034 96.1283C84.9056 96.182 84.9061 96.2085 84.906 96.2058C84.906 96.2045 84.9058 96.1958 84.9057 96.1795C84.9056 96.1713 84.9055 96.1613 84.9055 96.1493C84.9054 96.1433 84.9054 96.1368 84.9054 96.1298C84.9054 96.1264 84.9054 96.1207 84.9054 96.119C84.9054 96.1133 84.9054 96.1074 94.9054 96.1075C104.905 96.1075 104.905 96.1013 104.905 96.0951C104.905 96.0928 104.905 96.0865 104.905 96.0819C104.905 96.0729 104.905 96.0633 104.905 96.0531C104.905 96.0328 104.905 96.0103 104.905 95.9856C104.904 95.9362 104.903 95.8782 104.902 95.8118C104.9 95.6791 104.895 95.5126 104.887 95.3145C104.871 94.9187 104.841 94.3949 104.785 93.761C104.675 92.4968 104.462 90.7737 104.048 88.7409C103.227 84.7099 101.573 79.2457 98.1898 73.7063C91.0318 61.9876 77.2113 51.7305 52.9092 51.7305V61.7305Z" fill="white"/>
</svg>
