<svg width="36" height="52" viewBox="0 0 36 52" fill="none" xmlns="http://www.w3.org/2000/svg">
<path fill-rule="evenodd" clip-rule="evenodd" d="M9.70596 19.4557C6.09986 19.4557 3.17654 22.3857 3.17654 26C3.17654 29.6143 6.09986 32.5443 9.70596 32.5443H16.4117V26V19.4557H9.70596ZM26.1177 16.2721H26.294C29.9001 16.2721 32.8235 13.3422 32.8235 9.72787C32.8235 6.11357 29.9001 3.18366 26.294 3.18366H19.5883V16.2721H26.1177ZM31.6165 17.8639C34.2567 16.1255 36 13.1307 36 9.72787C36 4.35532 31.6546 0 26.294 0H19.5883H18H16.4117H9.70596C4.34542 0 0 4.35532 0 9.72787C0 13.1307 1.74325 16.1255 4.38346 17.8639C1.74325 19.6026 0 22.5972 0 26C0 29.4028 1.74325 32.3974 4.38346 34.1361C1.74325 35.8745 0 38.8693 0 42.2721C0 47.6559 4.40054 52 9.7497 52C15.1477 52 19.5883 47.6163 19.5883 42.1836V35.7279V34.1361V33.1976C21.3122 34.7696 23.6034 35.7279 26.1177 35.7279H26.294C31.6546 35.7279 36 31.3725 36 26C36 22.5972 34.2567 19.6026 31.6165 17.8639ZM26.294 19.4557H26.1177C22.5116 19.4557 19.5883 22.3857 19.5883 26C19.5883 29.6143 22.5116 32.5443 26.1177 32.5443H26.294C29.9001 32.5443 32.8235 29.6143 32.8235 26C32.8235 22.3857 29.9001 19.4557 26.294 19.4557ZM3.17654 42.2721C3.17654 38.6578 6.09986 35.7279 9.70596 35.7279H16.4117V42.1836C16.4117 45.8357 13.4158 48.8164 9.7497 48.8164C6.13241 48.8164 3.17654 45.8752 3.17654 42.2721ZM16.4117 16.2721H9.70596C6.09986 16.2721 3.17654 13.3422 3.17654 9.72787C3.17654 6.11357 6.09986 3.18366 9.70596 3.18366H16.4117V16.2721Z" fill="white"/>
</svg>
