<svg width="52" height="52" viewBox="0 0 52 52" fill="none" xmlns="http://www.w3.org/2000/svg">
<g clip-path="url(#clip0_1580_363)">
<mask id="mask0_1580_363" style="mask-type:luminance" maskUnits="userSpaceOnUse" x="0" y="0" width="52" height="52">
<path d="M52 0H0V52H52V0Z" fill="white"/>
</mask>
<g mask="url(#mask0_1580_363)">
<path d="M21.9883 37.5834C15.2851 36.754 10.5625 31.8293 10.5625 25.453C10.5625 22.8611 11.4766 20.0618 13 18.1956C12.3399 16.4849 12.4414 12.8561 13.2031 11.3528C15.2344 11.0936 17.9766 12.1822 19.6016 13.6855C21.5312 13.0635 23.5625 12.7525 26.0508 12.7525C28.5391 12.7525 30.5703 13.0635 32.3984 13.6337C33.9727 12.1822 36.7656 11.0936 38.7969 11.3528C39.5078 12.7525 39.6094 16.3812 38.9492 18.1437C40.5742 20.1136 41.4375 22.7574 41.4375 25.453C41.4375 31.8293 36.7149 36.6503 29.9101 37.5316C31.6367 38.672 32.8047 41.1603 32.8047 44.0115V49.4028C32.8047 50.9579 34.0742 51.8392 35.5977 51.2171C44.7891 47.6402 52 38.2573 52 26.6453C52 11.9748 40.3203 1.29263e-07 25.9492 0C11.5781 -1.29263e-07 1.26625e-07 11.9748 0 26.6453C-9.93311e-08 38.1536 7.16013 47.6921 16.8086 51.269C18.1797 51.7873 19.5 50.8543 19.5 49.4546V45.3074C18.7891 45.6185 17.875 45.8259 17.0625 45.8259C13.7109 45.8259 11.7305 43.9597 10.3086 40.4864C9.75 39.0868 9.14065 38.2573 7.97266 38.1018C7.36331 38.05 7.16013 37.7908 7.16013 37.4798C7.16013 36.8577 8.17578 36.3911 9.19142 36.3911C10.6641 36.3911 11.9336 37.3242 13.2539 39.2423C14.2695 40.7456 15.3359 41.4195 16.6055 41.4195C17.875 41.4195 18.6875 40.953 19.8555 39.7607C20.7188 38.8794 21.3789 38.1018 21.9883 37.5834Z" fill="white"/>
</g>
</g>
<defs>
<clipPath id="clip0_1580_363">
<rect width="52" height="52" fill="white"/>
</clipPath>
</defs>
</svg>
