<svg width="140" height="28" viewBox="0 0 140 28" fill="none" xmlns="http://www.w3.org/2000/svg">
<g clip-path="url(#clip0_1580_318)">
<path d="M93.0674 0.0117188H117.453V4.44514H107.779V27.7688H102.942V4.44514H93.0674V0.0117188Z" fill="white"/>
<path d="M52.9626 0.0117188V4.44514H33.416V11.5772H49.1354V16.0106H33.416V23.3354H52.9626V27.7688H28.5792V4.44514H28.5771V0.0117188H52.9626Z" fill="white"/>
<path d="M65.1394 0.0234375H58.8096L81.4818 27.7805H87.8301L76.4926 13.9115L87.812 0.0446144L81.4818 0.0542499L73.3234 10.0347L65.1394 0.0234375Z" fill="white"/>
<path d="M71.6344 19.8499L68.4645 15.9678L58.791 27.8012H65.139L71.6344 19.8499Z" fill="white"/>
<path fill-rule="evenodd" clip-rule="evenodd" d="M28.7487 27.7686L6.04598 0H0V27.7571H4.83679V5.93306L22.6724 27.7686H28.7487Z" fill="white"/>
<path d="M118.541 27.5988C118.186 27.5988 117.885 27.478 117.633 27.2362C117.38 26.9945 117.256 26.7018 117.259 26.3551C117.256 26.0179 117.38 25.7284 117.633 25.4867C117.885 25.2449 118.186 25.124 118.541 25.124C118.881 25.124 119.179 25.2449 119.432 25.4867C119.688 25.7284 119.815 26.0179 119.819 26.3551C119.815 26.5841 119.756 26.794 119.638 26.9817C119.517 27.1726 119.363 27.3221 119.169 27.4302C118.979 27.5416 118.77 27.5988 118.541 27.5988Z" fill="white"/>
<path d="M126.796 15.9062H128.94V24.04C128.936 24.7875 128.772 25.4269 128.451 25.9645C128.127 26.5021 127.678 26.9124 127.101 27.2019C126.528 27.4881 125.856 27.6345 125.092 27.6345C124.394 27.6345 123.768 27.5104 123.211 27.2687C122.654 27.0269 122.211 26.6643 121.887 26.1871C121.559 25.71 121.398 25.1152 121.398 24.4026H123.545C123.549 24.7144 123.621 24.9847 123.758 25.2106C123.896 25.4364 124.086 25.6082 124.328 25.7291C124.574 25.85 124.856 25.9104 125.174 25.9104C125.518 25.9104 125.813 25.8404 126.052 25.6973C126.291 25.5573 126.475 25.3474 126.603 25.0674C126.727 24.7907 126.793 24.4472 126.796 24.04V15.9062Z" fill="white"/>
<path d="M137.759 19.0868C137.706 18.5938 137.477 18.2089 137.077 17.9353C136.674 17.6586 136.153 17.5218 135.514 17.5218C135.065 17.5218 134.678 17.5886 134.357 17.719C134.036 17.8526 133.787 18.0307 133.616 18.2566C133.446 18.4825 133.361 18.7401 133.354 19.0296C133.354 19.2714 133.413 19.4813 133.528 19.6562C133.643 19.8344 133.796 19.9839 133.996 20.1048C134.193 20.2288 134.413 20.3306 134.652 20.4133C134.894 20.496 135.137 20.566 135.379 20.6233L136.497 20.8936C136.946 20.9954 137.382 21.1322 137.798 21.3072C138.214 21.4789 138.591 21.6984 138.922 21.9624C139.253 22.2265 139.515 22.5446 139.709 22.9167C139.902 23.2889 140 23.7247 140 24.2273C140 24.9048 139.823 25.4997 139.466 26.015C139.109 26.5271 138.594 26.9279 137.919 27.2174C137.247 27.5037 136.435 27.65 135.478 27.65C134.554 27.65 133.747 27.5101 133.069 27.2301C132.387 26.9534 131.856 26.5462 131.473 26.0118C131.089 25.4774 130.883 24.8253 130.854 24.0587H132.977C133.007 24.4595 133.138 24.7935 133.361 25.0639C133.587 25.3311 133.882 25.5283 134.242 25.6619C134.606 25.7923 135.012 25.8591 135.461 25.8591C135.93 25.8591 136.343 25.7891 136.7 25.6523C137.054 25.5156 137.333 25.3247 137.533 25.0766C137.736 24.8317 137.838 24.5422 137.841 24.2114C137.838 23.9092 137.745 23.6579 137.569 23.4606C137.388 23.2635 137.139 23.098 136.821 22.9644C136.5 22.8309 136.127 22.71 135.701 22.605L134.344 22.2678C133.364 22.0229 132.587 21.6507 132.02 21.1513C131.45 20.6519 131.168 19.9903 131.168 19.16C131.168 18.4793 131.358 17.8813 131.742 17.3691C132.122 16.857 132.643 16.4594 133.302 16.1763C133.964 15.89 134.711 15.75 135.543 15.75C136.389 15.75 137.129 15.89 137.769 16.1763C138.407 16.4594 138.909 16.8538 139.273 17.3564C139.637 17.859 139.827 18.4347 139.837 19.0868H137.759Z" fill="white"/>
</g>
<defs>
<clipPath id="clip0_1580_318">
<rect width="140" height="28" fill="white"/>
</clipPath>
</defs>
</svg>
