<svg width="140" height="28" viewBox="0 0 140 28" fill="none" xmlns="http://www.w3.org/2000/svg">
<g clip-path="url(#clip0_1580_345)">
<path d="M36.4814 16.5422C36.6258 17.9302 37.8535 20.3094 41.4164 20.3094C44.5217 20.3094 46.0145 18.2771 46.0145 16.2944C46.0145 14.5099 44.8347 13.0476 42.4998 12.5519L40.8145 12.1802C40.1646 12.0563 39.7313 11.6845 39.7313 11.0897C39.7313 10.3957 40.4053 9.87527 41.2479 9.87527C42.5959 9.87527 43.1014 10.7923 43.1978 11.511L45.8699 10.8914C45.7255 9.57785 44.594 7.37207 41.2239 7.37207C38.672 7.37207 36.7945 9.18132 36.7945 11.3623C36.7945 13.0724 37.8294 14.4852 40.1164 15.0056L41.6812 15.3774C42.5959 15.5756 42.9571 16.0218 42.9571 16.567C42.9571 17.2114 42.4516 17.7815 41.3923 17.7815C39.9961 17.7815 39.2978 16.8892 39.2258 15.9226L36.4814 16.5422Z" fill="white"/>
<path d="M56.2461 19.938H59.3034C59.2552 19.5167 59.1829 18.674 59.1829 17.7322V7.74414H55.981V14.8324C55.981 16.2452 55.1627 17.2365 53.7425 17.2365C52.2499 17.2365 51.5757 16.146 51.5757 14.7829V7.74414H48.374V15.4521C48.374 18.104 50.0109 20.2602 52.8757 20.2602C54.1273 20.2602 55.5 19.7645 56.1499 18.6244C56.1499 19.1201 56.1979 19.6902 56.2461 19.938Z" fill="white"/>
<path d="M65.8011 24.6472V18.7485C66.3786 19.5664 67.5825 20.2356 69.2196 20.2356C72.5656 20.2356 74.8042 17.5093 74.8042 13.8164C74.8042 10.198 72.8064 7.47168 69.3398 7.47168C67.5586 7.47168 66.2345 8.28953 65.7049 9.23137V7.7443H62.5996V24.6472H65.8011ZM71.6507 13.8412C71.6507 16.0223 70.3509 17.2862 68.7138 17.2862C67.0772 17.2862 65.7531 15.9975 65.7531 13.8412C65.7531 11.685 67.0772 10.421 68.7138 10.421C70.3509 10.421 71.6507 11.685 71.6507 13.8412Z" fill="white"/>
<path d="M76.6182 16.6166C76.6182 18.525 78.1586 20.2847 80.6866 20.2847C82.4435 20.2847 83.575 19.442 84.1767 18.4754C84.1767 18.9463 84.2249 19.6155 84.2972 19.9377H87.2341C87.1618 19.5163 87.09 18.6489 87.09 18.0045V12.0067C87.09 9.55305 85.6936 7.37207 81.9384 7.37207C78.7606 7.37207 77.0512 9.47869 76.8589 11.3871L79.6994 12.0067C79.7958 10.941 80.5661 10.024 81.962 10.024C83.3105 10.024 83.9603 10.7427 83.9603 11.6102C83.9603 12.0315 83.744 12.3785 83.0697 12.4776L80.157 12.9237C78.183 13.2211 76.6182 14.4356 76.6182 16.6166ZM81.3603 17.831C80.3254 17.831 79.8196 17.1371 79.8196 16.4183C79.8196 15.4765 80.4695 15.0056 81.2883 14.8817L83.9603 14.4604V15.0056C83.9603 17.1619 82.7085 17.831 81.3603 17.831Z" fill="white"/>
<path d="M93.4219 19.938V18.4509C94.0475 19.4919 95.2993 20.2354 96.9364 20.2354C100.307 20.2354 102.522 17.4843 102.522 13.7915C102.522 10.173 100.523 7.42192 97.0569 7.42192C95.2993 7.42192 93.9995 8.21501 93.4699 9.08241V1.99414H90.3164V19.938H93.4219ZM99.3195 13.8162C99.3195 16.0468 98.0198 17.286 96.3827 17.286C94.7699 17.286 93.4219 16.0221 93.4219 13.8162C93.4219 11.5856 94.7699 10.3712 96.3827 10.3712C98.0198 10.3712 99.3195 11.5856 99.3195 13.8162Z" fill="white"/>
<path d="M104.335 16.6166C104.335 18.525 105.875 20.2847 108.403 20.2847C110.16 20.2847 111.292 19.442 111.894 18.4754C111.894 18.9463 111.942 19.6155 112.014 19.9377H114.951C114.879 19.5163 114.807 18.6489 114.807 18.0045V12.0067C114.807 9.55305 113.41 7.37207 109.655 7.37207C106.477 7.37207 104.768 9.47869 104.576 11.3871L107.416 12.0067C107.513 10.941 108.283 10.024 109.679 10.024C111.027 10.024 111.677 10.7427 111.677 11.6102C111.677 12.0315 111.461 12.3785 110.786 12.4776L107.874 12.9237C105.9 13.2211 104.335 14.4356 104.335 16.6166ZM109.077 17.831C108.042 17.831 107.536 17.1371 107.536 16.4183C107.536 15.4765 108.186 15.0056 109.005 14.8817L111.677 14.4604V15.0056C111.677 17.1619 110.425 17.831 109.077 17.831Z" fill="white"/>
<path d="M117.022 16.5422C117.167 17.9302 118.395 20.3094 121.957 20.3094C125.063 20.3094 126.555 18.2771 126.555 16.2944C126.555 14.5099 125.376 13.0476 123.041 12.5519L121.355 12.1802C120.705 12.0563 120.272 11.6845 120.272 11.0897C120.272 10.3957 120.946 9.87527 121.789 9.87527C123.137 9.87527 123.642 10.7923 123.739 11.511L126.411 10.8914C126.266 9.57785 125.135 7.37207 121.765 7.37207C119.213 7.37207 117.335 9.18132 117.335 11.3623C117.335 13.0724 118.37 14.4852 120.657 15.0056L122.222 15.3774C123.137 15.5756 123.498 16.0218 123.498 16.567C123.498 17.2114 122.993 17.7815 121.933 17.7815C120.537 17.7815 119.839 16.8892 119.767 15.9226L117.022 16.5422Z" fill="white"/>
<path d="M131.418 12.4528C131.49 11.3375 132.405 10.0487 134.066 10.0487C135.896 10.0487 136.666 11.2384 136.715 12.4528H131.418ZM137.028 15.6252C136.642 16.7157 135.824 17.484 134.331 17.484C132.742 17.484 131.418 16.3192 131.346 14.7082H139.82C139.82 14.6586 139.868 14.1629 139.868 13.692C139.868 9.77611 137.677 7.37207 134.018 7.37207C130.985 7.37207 128.192 9.90002 128.192 13.7912C128.192 17.9053 131.057 20.3094 134.307 20.3094C137.22 20.3094 139.098 18.5497 139.7 16.4431L137.028 15.6252Z" fill="white"/>
<path d="M15.3514 27.3267C14.6623 28.219 13.2652 27.7301 13.2486 26.5908L13.0059 9.92676H23.9022C25.8758 9.92676 26.9765 12.2709 25.7493 13.8603L15.3514 27.3267Z" fill="url(#paint0_linear_1580_345)"/>
<path d="M15.3514 27.3267C14.6623 28.219 13.2652 27.7301 13.2486 26.5908L13.0059 9.92676H23.9022C25.8758 9.92676 26.9765 12.2709 25.7493 13.8603L15.3514 27.3267Z" fill="url(#paint1_linear_1580_345)" fill-opacity="0.2"/>
<path d="M10.9197 0.513582C11.6087 -0.3788 13.0058 0.110161 13.0224 1.2495L13.1288 17.9135H2.36886C0.39519 17.9135 -0.705564 15.5694 0.521725 13.98L10.9197 0.513582Z" fill="white"/>
</g>
<defs>
<linearGradient id="paint0_linear_1580_345" x1="13.0059" y1="13.6216" x2="22.7695" y2="17.6037" gradientUnits="userSpaceOnUse">
<stop stop-color="#F2F2F2"/>
<stop offset="1" stop-color="white"/>
</linearGradient>
<linearGradient id="paint1_linear_1580_345" x1="8.71237" y1="7.57657" x2="13.3243" y2="16.0192" gradientUnits="userSpaceOnUse">
<stop/>
<stop offset="1" stop-opacity="0"/>
</linearGradient>
<clipPath id="clip0_1580_345">
<rect width="140" height="28" fill="white"/>
</clipPath>
</defs>
</svg>
