<svg width="223" height="28" viewBox="0 0 223 28" fill="none" xmlns="http://www.w3.org/2000/svg">
<g clip-path="url(#clip0_1583_392)">
<path fill-rule="evenodd" clip-rule="evenodd" d="M22.9809 0C16.8527 0 13.0225 3.05455 11.4905 9.16364C13.7885 6.10909 16.4697 4.96364 19.5338 5.72727C21.282 6.16254 22.5315 7.42764 23.9146 8.82679C26.1676 11.1067 28.7755 13.7455 34.4714 13.7455C40.5996 13.7455 44.4298 10.6909 45.9618 4.58182C43.6637 7.63636 40.9826 8.78182 37.9185 8.01818C36.1703 7.58291 34.9208 6.31782 33.5377 4.91867C31.2847 2.63879 28.6768 0 22.9809 0ZM11.4905 13.7455C5.36221 13.7455 1.53206 16.8 0 22.9091C2.29809 19.8545 4.9792 18.7091 8.04332 19.4727C9.79157 19.9088 11.0411 21.1731 12.4242 22.5722C14.6771 24.8521 17.2851 27.4909 22.9809 27.4909C29.1092 27.4909 32.9393 24.4364 34.4714 18.3273C32.1733 21.3818 29.4922 22.5273 26.4281 21.7636C24.6798 21.3284 23.4303 20.0633 22.0472 18.6641C19.7942 16.3842 17.1863 13.7455 11.4905 13.7455Z" fill="white"/>
<path fill-rule="evenodd" clip-rule="evenodd" d="M68.9393 11.5835H64.9287V19.3216C64.9287 21.3852 66.2871 21.3529 68.9393 21.2239V24.3515C63.5702 24.9963 61.4356 23.5132 61.4356 19.3216V11.5835H58.46V8.23021H61.4356V3.89954L64.9287 2.86779V8.23021H68.9393V11.5835ZM84.2275 8.23021H87.7206V24.3515H84.2275V22.03C82.9985 23.7389 81.0902 24.7706 78.5674 24.7706C74.1687 24.7706 70.5139 21.0627 70.5139 16.2909C70.5139 11.4867 74.1687 7.81106 78.5674 7.81106C81.0902 7.81106 82.9985 8.84285 84.2275 10.5195V8.23021ZM79.1173 21.4496C82.0282 21.4496 84.2275 19.2894 84.2275 16.2909C84.2275 13.2923 82.0282 11.1321 79.1173 11.1321C76.2063 11.1321 74.007 13.2923 74.007 16.2909C74.007 19.2894 76.2063 21.4496 79.1173 21.4496ZM93.5425 5.81203C92.3134 5.81203 91.3108 4.78027 91.3108 3.5873C91.3116 2.99761 91.5474 2.43239 91.9653 2.01542C92.3841 1.59844 92.9509 1.36369 93.5425 1.36257C94.134 1.36369 94.7009 1.59844 95.1196 2.01542C95.5375 2.43239 95.7733 2.99761 95.7742 3.5873C95.7742 4.78027 94.7715 5.81203 93.5425 5.81203ZM91.7959 24.3515V8.23021H95.289V24.3515H91.7959ZM99.332 24.3515V0.814453H102.825V24.3515H99.332ZM125.498 8.23021H129.185L124.107 24.3515H120.679L117.315 13.4858L113.919 24.3515H110.49L105.413 8.23021H109.1L112.237 19.3539L115.633 8.23021H118.964L122.328 19.3539L125.498 8.23021ZM133.519 5.81203C132.29 5.81203 131.287 4.78027 131.287 3.5873C131.288 2.99761 131.524 2.43239 131.942 2.01542C132.361 1.59844 132.927 1.36369 133.519 1.36257C134.111 1.36369 134.677 1.59844 135.096 2.01542C135.514 2.43239 135.75 2.99761 135.751 3.5873C135.751 4.78027 134.748 5.81203 133.519 5.81203ZM131.772 24.3515V8.23021H135.266V24.3515H131.772ZM147.815 7.81106C151.437 7.81106 154.025 10.2615 154.025 14.453V24.3515H150.532V14.8077C150.532 12.3573 149.109 11.0676 146.909 11.0676C144.613 11.0676 142.802 12.4218 142.802 15.7105V24.3515H139.309V8.23021H142.802V10.2938C143.869 8.61715 145.616 7.81106 147.815 7.81106ZM170.585 1.78173H174.078V24.3515H170.585V22.03C169.356 23.7389 167.447 24.7706 164.925 24.7706C160.526 24.7706 156.871 21.0627 156.871 16.2909C156.871 11.4867 160.526 7.81106 164.925 7.81106C167.447 7.81106 169.356 8.84285 170.585 10.5195V1.78173ZM165.474 21.4496C168.385 21.4496 170.585 19.2894 170.585 16.2909C170.585 13.2923 168.385 11.1321 165.474 11.1321C162.564 11.1321 160.364 13.2923 160.364 16.2909C160.364 19.2894 162.564 21.4496 165.474 21.4496ZM185.786 24.7706C180.902 24.7706 177.247 21.0627 177.247 16.2909C177.247 11.4867 180.902 7.81106 185.786 7.81106C188.956 7.81106 191.705 9.45546 192.999 11.9704L189.991 13.7115C189.279 12.1961 187.694 11.2288 185.754 11.2288C182.908 11.2288 180.741 13.389 180.741 16.2909C180.741 19.1927 182.908 21.3529 185.754 21.3529C187.694 21.3529 189.279 20.3534 190.056 18.8702L193.063 20.5791C191.705 23.1262 188.956 24.7706 185.786 24.7706ZM198.821 12.6797C198.821 15.6138 207.521 13.8404 207.521 19.8053C207.521 23.0295 204.707 24.7706 201.214 24.7706C197.98 24.7706 195.651 23.3197 194.616 20.9982L197.624 19.2572C198.141 20.7081 199.435 21.5786 201.214 21.5786C202.767 21.5786 203.963 21.0627 203.963 19.773C203.963 16.9035 195.263 18.5156 195.263 12.7442C195.263 9.7134 197.883 7.81106 201.182 7.81106C203.834 7.81106 206.033 9.0363 207.165 11.1643L204.222 12.8087C203.64 11.5512 202.508 10.9708 201.182 10.9708C199.92 10.9708 198.821 11.519 198.821 12.6797ZM213.731 12.6797C213.731 15.6138 222.431 13.8404 222.431 19.8053C222.431 23.0295 219.617 24.7706 216.124 24.7706C212.89 24.7706 210.561 23.3197 209.526 20.9982L212.534 19.2572C213.052 20.7081 214.345 21.5786 216.124 21.5786C217.677 21.5786 218.874 21.0627 218.874 19.773C218.874 16.9035 210.173 18.5156 210.173 12.7442C210.173 9.7134 212.793 7.81106 216.092 7.81106C218.744 7.81106 220.944 9.0363 222.076 11.1643L219.132 12.8087C218.55 11.5512 217.418 10.9708 216.092 10.9708C214.831 10.9708 213.731 11.519 213.731 12.6797Z" fill="white"/>
</g>
<defs>
<clipPath id="clip0_1583_392">
<rect width="223" height="28" fill="white"/>
</clipPath>
</defs>
</svg>
