<svg width="141" height="28" viewBox="0 0 141 28" fill="none" xmlns="http://www.w3.org/2000/svg">
<path fill-rule="evenodd" clip-rule="evenodd" d="M89.2025 21.3581V19.9529C90.4862 20.7653 91.7864 21.1714 93.1034 21.1714C94.5037 21.1714 95.5666 20.8834 96.2917 20.3073C97.0169 19.7311 97.3795 18.925 97.3795 17.8887C97.3795 16.9768 97.1357 16.2494 96.6481 15.7064C96.1779 15.1828 95.1788 14.4762 93.6505 13.5864L93.4785 13.4869C91.6614 12.434 90.5111 11.5532 90.0277 10.8445C89.5443 10.1356 89.3026 9.31703 89.3026 8.38854C89.3026 7.1285 89.7942 6.05913 90.7779 5.18039C91.7615 4.30166 93.0743 3.8623 94.7163 3.8623C95.7833 3.8623 96.8502 4.04054 97.9171 4.397V5.69022C96.8668 5.21769 95.7458 4.98144 94.5539 4.98144C93.3369 4.98144 92.372 5.28815 91.6593 5.90162C90.9467 6.51506 90.5903 7.2943 90.5903 8.23937C90.5903 9.15121 90.8341 9.87655 91.3218 10.4154C91.8094 10.9542 92.8617 11.6879 94.4788 12.6164C96.1542 13.5614 97.2691 14.4008 97.8233 15.1344C98.3777 15.8682 98.6548 16.7116 98.6548 17.6649C98.6548 19.0328 98.1776 20.1478 97.2232 21.0098C96.2688 21.872 94.9205 22.3031 93.1785 22.3031C92.5617 22.3031 91.8511 22.2077 91.0467 22.017C90.2424 21.8265 89.6275 21.6067 89.2025 21.3581ZM44.7657 6.67533H49.8927V4.16215H36.6895V6.67533H41.8041V22.0032H44.7657V6.67533ZM54.6189 24.0431L60.3953 9.25961H57.4696L54.2689 18.5428C54.1929 18.8274 54.1334 19.059 54.0903 19.2379L54.0438 19.4388H53.9812C53.9146 19.1544 53.8615 18.9322 53.8221 18.7723L53.7562 18.5179L50.7055 9.25961H47.4921L52.5809 21.9773L51.7182 24.068C51.1847 25.1298 50.3761 25.6608 49.2926 25.6608C48.9175 25.6608 48.5007 25.5861 48.0423 25.4368V27.8385C48.4507 27.9463 48.9592 28.0002 49.5676 28.0002C51.7349 28.0002 53.4186 26.6812 54.6189 24.0431ZM65.1436 20.1151H65.0936V27.8503H62.1958V9.25826H65.0936V11.4968H65.1436C66.1344 9.80533 67.5833 8.95976 69.4903 8.95976C71.114 8.95976 72.3797 9.52767 73.2874 10.6635C74.195 11.7993 74.6489 13.3248 74.6489 15.24C74.6489 17.3625 74.1368 19.062 73.1125 20.3389C72.0883 21.6157 70.6894 22.2541 68.9156 22.2541C67.2835 22.2541 66.0262 21.541 65.1436 20.1151ZM65.0465 16.7392V15.1683C65.0465 14.0798 65.3605 13.1728 65.9887 12.447C66.6168 11.7214 67.4466 11.3586 68.4783 11.3586C69.4517 11.3586 70.2234 11.711 70.7932 12.4161C71.3632 13.1212 71.6481 14.0963 71.6481 15.3415C71.6481 16.8259 71.3423 17.9824 70.7309 18.811C70.1194 19.6398 69.2771 20.0542 68.2037 20.0542C67.2886 20.0542 66.5337 19.7326 65.9388 19.0894C65.3439 18.4463 65.0465 17.6628 65.0465 16.7392ZM87.7021 16.4155H79.0591C79.0922 17.5939 79.4534 18.5025 80.1426 19.1415C80.8319 19.7804 81.7791 20.0999 82.9843 20.0999C84.3383 20.0999 85.5806 19.6933 86.7116 18.8801V21.2077C85.5558 21.938 84.0286 22.3031 82.13 22.3031C80.2643 22.3031 78.8011 21.7242 77.7404 20.5667C76.6796 19.4091 76.1492 17.7806 76.1492 15.6812C76.1492 13.698 76.7333 12.0819 77.9014 10.8331C79.0694 9.58419 80.5203 8.95976 82.2538 8.95976C83.9873 8.95976 85.3288 9.51988 86.2781 10.6401C87.2274 11.7604 87.7021 13.3163 87.7021 15.3077V16.4155ZM84.2732 11.9271C84.7504 12.5059 84.9932 13.316 85.0014 14.3571H79.15C79.2817 13.3741 79.6335 12.5788 80.2055 11.9707C80.7774 11.3628 81.475 11.0587 82.2979 11.0587C83.1374 11.0587 83.7957 11.3482 84.2732 11.9271ZM105.993 22.3031C107.315 22.3031 108.453 22.0131 109.407 21.4334V20.2407C108.453 20.9199 107.332 21.2595 106.043 21.2595C104.637 21.2595 103.505 20.7584 102.647 19.7562C101.789 18.7539 101.36 17.4287 101.36 15.7804C101.36 14.0743 101.829 12.6849 102.766 11.6122C103.704 10.5397 104.926 10.0034 106.432 10.0034C107.528 10.0034 108.537 10.2849 109.458 10.8482V9.55616C108.537 9.15856 107.587 8.95976 106.608 8.95976C104.716 8.95976 103.168 9.60368 101.963 10.8917C100.758 12.1797 100.155 13.8341 100.155 15.8551C100.155 17.7767 100.691 19.3317 101.762 20.5202C102.833 21.7088 104.244 22.3031 105.993 22.3031ZM116.959 10.4091C116.578 10.1341 116.131 9.99679 115.617 9.99679C114.615 9.99679 113.774 10.5173 113.095 11.5584C112.416 12.5996 112.076 14.078 112.076 15.9938V22.0032H110.958V9.20968H112.076V12.0457H112.126C112.416 11.0711 112.875 10.3133 113.505 9.7719C114.135 9.23052 114.864 8.95976 115.692 8.95976C116.164 8.95976 116.587 9.03472 116.959 9.18464V10.4091ZM118.751 5.82908C118.945 6.01715 119.169 6.11118 119.422 6.11118C119.692 6.11118 119.925 6.01287 120.119 5.81626C120.313 5.61965 120.41 5.38457 120.41 5.11102C120.41 4.82037 120.311 4.58958 120.113 4.4186C119.914 4.24764 119.684 4.16215 119.422 4.16215C119.178 4.16215 118.956 4.24977 118.757 4.42502C118.559 4.60027 118.46 4.82893 118.46 5.11102C118.46 5.40168 118.557 5.64102 118.751 5.82908ZM118.76 22.0032V9.25961H119.96V22.0032H118.76ZM123.805 19.7349H123.854C124.766 21.4499 126.175 22.3074 128.082 22.3074C129.789 22.3074 131.163 21.6508 132.203 20.3376C133.243 19.0244 133.764 17.3031 133.764 15.1737C133.764 13.2599 133.31 11.7457 132.402 10.6313C131.495 9.51688 130.233 8.95976 128.616 8.95976C127.597 8.95976 126.662 9.21448 125.813 9.72407C124.963 10.2337 124.31 10.9565 123.854 11.8927H123.805V9.2704H122.661V27.8503H123.805V19.7349ZM123.861 14.9984V16.5995C123.861 17.8737 124.267 18.9679 125.079 19.8822C125.891 20.7965 126.958 21.2536 128.281 21.2536C129.595 21.2536 130.662 20.6972 131.483 19.5843C132.303 18.4714 132.713 17.0091 132.713 15.1971C132.713 13.6085 132.337 12.3467 131.583 11.4116C130.83 10.4767 129.825 10.0092 128.57 10.0092C127.071 10.0092 125.912 10.5056 125.092 11.4986C124.271 12.4914 123.861 13.6581 123.861 14.9984ZM139.296 22.3031C139.815 22.3031 140.372 22.1625 140.965 21.8812V20.8139C140.421 21.12 139.914 21.2731 139.444 21.2731C138.785 21.2731 138.317 21.0765 138.041 20.6836C137.765 20.2906 137.627 19.6557 137.627 18.7786V10.3896H140.965V9.34716H137.627V5.66141C137.445 5.7276 137.256 5.78964 137.058 5.84755C136.86 5.91374 136.67 5.97992 136.489 6.04611V9.34716H134.214V10.3896H136.489V18.9275C136.489 21.1779 137.425 22.3031 139.296 22.3031Z" fill="white"/>
<g clip-path="url(#clip0_1583_398)">
<path d="M24.9224 0H2.11207C0.945605 0 0 0.945605 0 2.11207V24.9224C0 26.0889 0.945605 27.0345 2.11207 27.0345H24.9224C26.0889 27.0345 27.0345 26.0889 27.0345 24.9224V2.11207C27.0345 0.945605 26.0889 0 24.9224 0Z" fill="white"/>
<path fill-rule="evenodd" clip-rule="evenodd" d="M15.8956 21.1711V24.0879C16.3699 24.331 16.931 24.5132 17.5787 24.6348C18.2263 24.7563 18.9089 24.817 19.6266 24.817C20.3259 24.817 20.9904 24.7502 21.6198 24.6165C22.2492 24.4828 22.8012 24.2625 23.2754 23.9557C23.7498 23.6489 24.1253 23.2478 24.4021 22.7525C24.6788 22.2573 24.8171 21.6451 24.8171 20.9159C24.8171 20.3873 24.738 19.9239 24.58 19.5259C24.4219 19.1279 24.1938 18.7739 23.8958 18.464C23.5978 18.1541 23.2405 17.8762 22.824 17.63C22.4074 17.3839 21.9376 17.1515 21.4145 16.9328C21.0314 16.7747 20.6878 16.6214 20.3837 16.4725C20.0797 16.3236 19.8212 16.1717 19.6084 16.0167C19.3955 15.8618 19.2313 15.6977 19.1157 15.5245C19.0002 15.3513 18.9424 15.1554 18.9424 14.9366C18.9424 14.736 18.9941 14.5553 19.0975 14.3943C19.2008 14.2333 19.3469 14.095 19.5354 13.9796C19.7239 13.8641 19.955 13.7745 20.2287 13.7106C20.5023 13.6468 20.8064 13.6149 21.1409 13.6149C21.3842 13.6149 21.6411 13.6332 21.9117 13.6697C22.1823 13.7061 22.4545 13.7623 22.7282 13.8383C23.0018 13.9142 23.2678 14.0099 23.5264 14.1254C23.7848 14.2409 24.0235 14.3746 24.2425 14.5264V11.8011C23.7985 11.631 23.3135 11.5049 22.7874 11.4228C22.2614 11.3408 21.6578 11.2998 20.9767 11.2998C20.2834 11.2998 19.6266 11.3743 19.0063 11.5232C18.386 11.672 17.8401 11.9044 17.3688 12.2204C16.8975 12.5364 16.5251 12.939 16.2513 13.4281C15.9777 13.9173 15.8409 14.5021 15.8409 15.1827C15.8409 16.0516 16.0917 16.793 16.5935 17.4067C17.0952 18.0204 17.8568 18.54 18.8785 18.9653C19.2799 19.1295 19.654 19.2904 20.0006 19.4485C20.3473 19.6065 20.6468 19.7705 20.8992 19.9406C21.1515 20.1107 21.3507 20.2961 21.4967 20.4966C21.6426 20.6971 21.7156 20.925 21.7156 21.1803C21.7156 21.3686 21.67 21.5433 21.5787 21.7044C21.4876 21.8653 21.3491 22.0051 21.1637 22.1236C20.9783 22.2421 20.7471 22.3347 20.4704 22.4016C20.1937 22.4684 19.8698 22.5019 19.4989 22.5019C18.8664 22.5019 18.2401 22.391 17.6197 22.1691C16.9993 21.9474 16.4246 21.6147 15.8956 21.1711ZM11.034 13.9126H14.7848V11.511H4.33008V13.9126H8.0626V24.6058H11.034V13.9126Z" fill="#1E1E1E"/>
</g>
<defs>
<clipPath id="clip0_1583_398">
<rect width="27.0345" height="27.0345" fill="white"/>
</clipPath>
</defs>
</svg>
