<svg width="140" height="28" viewBox="0 0 140 28" fill="none" xmlns="http://www.w3.org/2000/svg">
<g clip-path="url(#clip0_1580_327)">
<path fill-rule="evenodd" clip-rule="evenodd" d="M31.9542 27.9764L15.9771 0.0126953L0 27.9764H31.9542ZM48.0694 26.7035L61.4216 1.28385H55.6462L46.4356 19.7445L37.2249 1.28385H31.4495L44.8017 26.7035H48.0694ZM139.064 1.28385V26.7036H134.283V1.28385H139.064ZM112.45 17.2158C112.45 15.2347 112.861 13.4923 113.682 11.9887C114.504 10.4849 115.65 9.32734 117.119 8.51583C118.588 7.70431 120.306 7.29848 122.274 7.29848C124.017 7.29848 125.586 7.68044 126.98 8.44421C128.375 9.20798 129.483 10.3417 130.305 11.8454C131.126 13.3492 131.55 15.187 131.575 17.359V18.4689H117.493C117.592 20.0442 118.053 21.2853 118.874 22.1923C119.721 23.0755 120.855 23.517 122.274 23.517C123.17 23.517 123.992 23.2784 124.739 22.801C125.486 22.3236 126.046 21.6792 126.42 20.8677L131.314 21.2257C130.715 23.0158 129.595 24.4479 127.952 25.5219C126.308 26.5961 124.415 27.1331 122.274 27.1331C120.306 27.1331 118.588 26.7273 117.119 25.9158C115.65 25.1043 114.504 23.9466 113.682 22.443C112.861 20.9392 112.45 19.1969 112.45 17.2158ZM126.644 15.4257C126.47 13.8742 125.984 12.7405 125.187 12.0244C124.39 11.2845 123.419 10.9145 122.274 10.9145C120.954 10.9145 119.883 11.3084 119.062 12.096C118.239 12.8837 117.729 13.9936 117.53 15.4257H126.644ZM104.382 12.0244C105.179 12.6689 105.677 13.5639 105.876 14.7096L110.806 14.459C110.632 13.003 110.122 11.738 109.275 10.6639C108.428 9.58987 107.333 8.76645 105.988 8.19359C104.668 7.59685 103.212 7.29848 101.618 7.29848C99.6502 7.29848 97.9323 7.70431 96.4626 8.51583C94.9936 9.32734 93.8478 10.4849 93.0262 11.9887C92.2045 13.4923 91.7937 15.2347 91.7937 17.2158C91.7937 19.1969 92.2045 20.9392 93.0262 22.443C93.8478 23.9466 94.9936 25.1043 96.4626 25.9158C97.9323 26.7273 99.6502 27.1331 101.618 27.1331C103.261 27.1331 104.755 26.8347 106.1 26.238C107.445 25.6174 108.54 24.7463 109.387 23.6244C110.234 22.5026 110.744 21.1898 110.919 19.6862L105.951 19.4713C105.777 20.7363 105.291 21.715 104.494 22.4071C103.697 23.0755 102.738 23.4096 101.618 23.4096C100.074 23.4096 98.8784 22.8726 98.0314 21.7985C97.1852 20.7244 96.762 19.1969 96.762 17.2158C96.762 15.2347 97.1852 13.7072 98.0314 12.6331C98.8784 11.559 100.074 11.022 101.618 11.022C102.689 11.022 103.61 11.3561 104.382 12.0244ZM80.1274 7.72729H84.577L84.7055 11.3794C85.0213 10.3457 85.4602 9.54288 86.0228 8.97105C86.8383 8.14192 87.9758 7.72729 89.4339 7.72729H91.2509V11.6363H89.397C88.3586 11.6363 87.5061 11.7784 86.8383 12.0627C86.1957 12.3469 85.7015 12.7971 85.3556 13.4131C85.0343 14.029 84.8736 14.8108 84.8736 15.7584V26.7035H80.1274V7.72729ZM59.6042 11.9887C58.7825 13.4923 58.3716 15.2347 58.3716 17.2158C58.3716 19.1969 58.7825 20.9392 59.6042 22.443C60.4261 23.9466 61.5716 25.1043 63.0409 25.9158C64.5101 26.7273 66.2284 27.1331 68.1957 27.1331C70.337 27.1331 72.2299 26.5961 73.8732 25.5219C75.5173 24.4479 76.6377 23.0158 77.2352 21.2257L72.342 20.8677C71.9688 21.6792 71.4082 22.3236 70.661 22.801C69.9139 23.2784 69.0922 23.517 68.1957 23.517C66.7762 23.517 65.6432 23.0755 64.7965 22.1923C63.9747 21.2853 63.514 20.0442 63.4144 18.4689H77.497V17.359C77.4717 15.187 77.0485 13.3492 76.2269 11.8454C75.4052 10.3417 74.2971 9.20798 72.9025 8.44421C71.508 7.68044 69.9392 7.29848 68.1957 7.29848C66.2284 7.29848 64.5101 7.70431 63.0409 8.51583C61.5716 9.32734 60.4261 10.4849 59.6042 11.9887ZM71.1095 12.0244C71.9059 12.7405 72.3919 13.8742 72.5662 15.4257H63.4517C63.651 13.9936 64.1615 12.8837 64.9832 12.096C65.8051 11.3084 66.8758 10.9145 68.1957 10.9145C69.341 10.9145 70.3124 11.2845 71.1095 12.0244Z" fill="white"/>
</g>
<defs>
<clipPath id="clip0_1580_327">
<rect width="140" height="28" fill="white"/>
</clipPath>
</defs>
</svg>
