<svg width="487" height="177" viewBox="0 0 487 177" fill="none" xmlns="http://www.w3.org/2000/svg">
<path d="M304.392 135H277.32V62.424H302.664V84.456H304.104C305.688 72.36 313.608 60.984 333.048 60.984C352.632 60.984 361.848 72.792 361.848 88.488V135H334.776V98.424C334.776 88.344 331.032 85.176 319.224 85.176C307.272 85.176 304.392 88.2 304.392 97.56V135ZM393.323 136.44C376.907 136.44 367.691 128.952 367.691 116.568C367.691 106.344 374.747 99 391.163 97.416L420.683 94.536V93.096C420.683 85.752 417.515 84.6 407.867 84.6C398.939 84.6 396.203 86.328 396.203 92.376V92.952H369.131V92.664C369.131 73.368 385.259 60.984 409.883 60.984C435.227 60.984 447.467 73.368 447.467 93.672V135H422.123V119.736H420.683C417.947 129.96 409.019 136.44 393.323 136.44ZM394.907 114.84C394.907 117.144 397.211 117.576 401.387 117.576C414.491 117.576 419.819 115.992 420.539 109.512L398.363 112.104C395.915 112.392 394.907 113.256 394.907 114.84ZM482.564 55.8H455.492V38.52H482.564V55.8ZM450.02 159.48H447.428V139.608H450.164C453.764 139.608 455.492 138.312 455.492 134.424V62.424H482.564V130.392C482.564 153.288 470.756 159.48 450.02 159.48Z" fill="white"/>
<path d="M184.528 103.465C184.528 103.465 187.039 77.7299 205.755 77.7295C224.47 77.7291 226.981 103.465 226.981 103.465V158" stroke="white" stroke-width="20"/>
<path d="M184.452 103.736C184.452 103.736 181.942 78.0004 163.226 78C144.51 77.9996 141.999 103.736 141.999 103.736L141.998 122.5" stroke="white" stroke-width="20"/>
<path d="M175.232 87.1353L175.232 103.595C175.232 103.595 173.758 91.838 163.44 91.838C153.122 91.838 151.648 103.595 151.648 103.595L151.648 87.1353L175.232 87.1353Z" fill="white"/>
<path d="M217.685 87.1353L217.685 103.595C217.685 103.595 216.211 91.838 205.892 91.838C195.574 91.838 194.1 103.595 194.1 103.595L194.1 87.1353L217.685 87.1353Z" fill="white"/>
<path d="M52 77.7297C52 77.7297 52 26 118.038 26C180.5 27.5 180.5 77.7297 180.5 77.7297" stroke="white" stroke-width="20"/>
<path d="M174.527 103.594L174.527 113.594L194.527 113.595L194.527 103.595L184.527 103.595L174.527 103.594ZM184.528 89H174.528C174.528 91.7498 174.528 95.3983 174.528 98.3595C174.527 99.84 174.527 101.149 174.527 102.087C174.527 102.557 174.527 102.933 174.527 103.193C174.527 103.322 174.527 103.423 174.527 103.491C174.527 103.525 174.527 103.551 174.527 103.568C174.527 103.577 174.527 103.583 174.527 103.588C174.527 103.59 174.527 103.591 174.527 103.593C174.527 103.593 174.527 103.593 174.527 103.594C174.527 103.594 174.527 103.594 174.527 103.594C174.527 103.594 174.527 103.594 184.527 103.595C194.527 103.595 194.527 103.595 194.527 103.595C194.527 103.595 194.527 103.595 194.527 103.595C194.527 103.594 194.527 103.594 194.527 103.593C194.527 103.592 194.527 103.591 194.527 103.588C194.527 103.584 194.527 103.577 194.527 103.569C194.527 103.551 194.527 103.526 194.527 103.492C194.527 103.424 194.527 103.323 194.527 103.193C194.527 102.934 194.527 102.557 194.527 102.088C194.527 101.149 194.527 99.8407 194.528 98.3601C194.528 95.399 194.528 91.7502 194.528 89H184.528Z" fill="white"/>
<rect x="20" y="158" width="20" height="198" transform="rotate(-90 20 158)" fill="white"/>
<path d="M10 120.107L0.00232029 119.892L0 120V120.107H10ZM84.9054 112.107V122.107L104.905 122.107V112.107L94.9054 112.107L84.9054 112.107ZM10 158H20V120.107H10H0V158H10ZM10 120.107C19.9977 120.323 19.9976 120.328 19.9975 120.332C19.9974 120.333 19.9973 120.338 19.9973 120.34C19.9972 120.346 19.9971 120.35 19.997 120.354C19.9967 120.362 19.9966 120.368 19.9965 120.371C19.9963 120.377 19.9964 120.374 19.9969 120.361C19.9978 120.336 20.0004 120.273 20.0056 120.177C20.0162 119.983 20.0377 119.653 20.0789 119.206C20.1617 118.309 20.3224 116.963 20.629 115.321C21.2505 111.992 22.426 107.695 24.5889 103.512C26.7342 99.3628 29.7484 95.5145 34.0139 92.6861C38.2113 89.9028 44.1806 87.7305 52.9092 87.7305V77.7305V67.7305C40.6396 67.7305 30.7463 70.8553 22.9611 76.0177C15.244 81.1349 10.1556 87.8809 6.82314 94.3261C3.50826 100.737 1.8307 107.034 0.968721 111.651C0.533504 113.982 0.294806 115.946 0.163607 117.367C0.0978565 118.079 0.0586681 118.66 0.0353661 119.087C0.0237083 119.3 0.0160017 119.476 0.0109348 119.611C0.00840092 119.678 0.00652504 119.736 0.00514317 119.783C0.00445271 119.806 0.00388622 119.827 0.00342178 119.845C0.00319004 119.854 0.00298405 119.863 0.00280094 119.871C0.00271034 119.875 0.00258827 119.88 0.0025444 119.882C0.00242901 119.887 0.00232029 119.892 10 120.107ZM52.9092 77.7305V87.7305C70.6033 87.7305 77.7808 94.6618 81.1219 100.132C82.9879 103.186 83.9586 106.316 84.4502 108.731C84.6925 109.921 84.8075 110.884 84.8612 111.5C84.8879 111.806 84.899 112.02 84.9034 112.128C84.9056 112.182 84.9061 112.208 84.906 112.206C84.906 112.204 84.9058 112.196 84.9057 112.179C84.9056 112.171 84.9055 112.161 84.9055 112.149C84.9054 112.143 84.9054 112.137 84.9054 112.13C84.9054 112.126 84.9054 112.121 84.9054 112.119C84.9054 112.113 84.9054 112.107 94.9054 112.107C104.905 112.107 104.905 112.101 104.905 112.095C104.905 112.093 104.905 112.086 104.905 112.082C104.905 112.073 104.905 112.063 104.905 112.053C104.905 112.033 104.905 112.01 104.905 111.986C104.904 111.936 104.903 111.878 104.902 111.812C104.9 111.679 104.895 111.513 104.887 111.315C104.871 110.919 104.841 110.395 104.785 109.761C104.675 108.497 104.462 106.774 104.048 104.741C103.227 100.71 101.573 95.2457 98.1898 89.7063C91.0318 77.9876 77.2113 67.7305 52.9092 67.7305V77.7305Z" fill="white"/>
</svg>
